<?xml version="1.0" encoding="UTF-8"?>
<svg id="Layer_1" data-name="Layer 1" xmlns="http://www.w3.org/2000/svg" viewBox="0 0 474.98 128.15">
  <defs>
    <style>
      .cls-1 {
        fill: #fff;
      }

      .cls-2 {
        font-family: RobotoSlab-Regular, 'Roboto Slab';
        font-size: 110.83px;
      }

      .cls-2, .cls-3 {
        fill: #272727;
      }

      .cls-4 {
        letter-spacing: -.04em;
      }

      .cls-5 {
        fill: none;
        stroke: #fff;
        stroke-miterlimit: 10;
        stroke-width: .5px;
      }

      .cls-6 {
        fill: #747474;
      }

      .cls-7 {
        fill: #424242;
      }

      .cls-8 {
        letter-spacing: .01em;
      }
    </style>
  </defs>
  <text class="cls-2" transform="translate(140.51 94.82)"><tspan class="cls-8" x="0" y="0">bidif</tspan><tspan class="cls-4" x="248.48" y="0">y</tspan><tspan class="cls-8" x="306.68" y="0">.</tspan></text>
  <g>
    <path class="cls-3" d="M110.71,100.14l-92.42-.52c-9.87,0-18.02-7.72-18.02-17.58V24.03c0-9.87,8-17.87,17.87-17.87H110.71c9.87,0,17.87,8,17.87,17.87v58.25c0,9.87-8,17.87-17.87,17.87Z"/>
    <path class="cls-6" d="M72.87,44.79C62.32,47.21,24.03,66.04,.26,77.95v4.33c0,9.87,8.26,17.93,18.13,17.93h57.62c1.68-18.47-2.35-49.77-3.14-55.41Z"/>
    <path class="cls-7" d="M110.71,6.16h-19.81c-.43,1.17-1.45,2.19-2.07,2.81-4.09,.94-6.59,2.88-8.2,5.21,1.61,3.6,3.4,7.2,5.2,10.79-3.23,1.14-6.45,2.3-9.67,3.48-.1,.19-.21,.36-.33,.52-.19,.21-.4,.41-.59,.62,1.32,2.03,1.64,4.32-.41,7.38-2.96,4.93-8.82,5.97-14.73,6C42.63,55.67,21.3,63.76,.26,69.12v8.28c23.76-11.91,46.09-24.11,71.85-32.03,3.72,17.86,5.31,36.31,3.64,54.78h34.96c9.87,0,17.87-8,17.87-17.87V24.03c0-9.87-8-17.87-17.87-17.87Z"/>
    <polygon class="cls-1" points="71.89 34.61 0 67.24 .07 78.03 76.01 43.56 71.89 34.61"/>
    <rect class="cls-1" x="72.55" y="22.04" width="31.32" height="20.88" transform="translate(81.13 -61.25) rotate(65.46)"/>
    <rect class="cls-1" x="80.79" y="46.35" width="31.32" height="8.35" rx="1.03" ry="1.03" transform="translate(-12.27 44.61) rotate(-24.54)"/>
    <path class="cls-1" d="M67.03,23.8l-2.61-5.72c-.24-.52,0-1.13,.51-1.37l24.68-10.65c.52-.24,3-.14,3.74-.02l2.17,4.75c.24,.52,0,1.13-.51,1.37l-26.61,12.15c-.52,.24-1.13,0-1.37-.51Z"/>
    <rect class="cls-1" x="77.69" y="16.82" width="20.88" height="31.32" rx="1.06" ry="1.06" transform="translate(81.08 -61.18) rotate(65.46)"/>
    <rect class="cls-1" x="63.78" y="74.38" width="31.44" height="18.37" rx="3.11" ry="3.11" transform="translate(13.37 178.06) rotate(-101.44)"/>
    <path class="cls-1" d="M68.88,63.31h13.96c1.54,0,2.8,1.25,2.8,2.8v12.77c0,1.54-1.25,2.8-2.8,2.8h-13.96v-18.37h0Z" transform="translate(21.54 162.61) rotate(-101.44)"/>
    <path class="cls-5" d="M78.12,75.77c-.23,.23-2.32-7.82-4.47-19.92-.88-4.94-1.33-8.04-1.43-8.74-.89-6.08,1.06-11.65,1.78-9.99,.37,.85,.44,3.18,.49,4.96,.06,2.09-.11,3.32-.13,4.24-.06,2.65,.01,5.15,.11,7.44,.12,2.78,.12,4.09,2.93,18.18,.7,3.49,.74,3.79,.71,3.83Z"/>
  </g>
</svg>