<?xml version="1.0" encoding="UTF-8"?>
<svg id="Layer_1" data-name="Layer 1" xmlns="http://www.w3.org/2000/svg" viewBox="0 0 416.53 139.7">
  <defs>
    <style>
      .cls-1 {
        fill: #267942;
      }
    </style>
  </defs>
  <path class="cls-1" d="M75.25,74.83c0,10.8-2.6,19.51-7.79,26.13-5.19,6.62-12.33,9.93-21.43,9.93-4.89,0-9.14-.93-12.74-2.8-3.6-1.87-6.6-4.63-9-8.27l-1.25,9.62H11.28V12.18L0,10.25V1.45H24.92V43.41c2.35-3.32,5.27-5.86,8.76-7.62,3.48-1.75,7.56-2.63,12.22-2.63,9.23,0,16.43,3.69,21.6,11.08,5.17,7.38,7.75,17.1,7.75,29.15v1.45Zm-13.71-1.45c0-8.63-1.57-15.65-4.71-21.05-3.14-5.4-7.94-8.1-14.4-8.1-4.2,0-7.74,1.02-10.63,3.05-2.88,2.03-5.18,4.75-6.89,8.17v33.09c1.71,3.46,4.03,6.21,6.96,8.24,2.93,2.03,6.5,3.05,10.7,3.05,6.41,0,11.18-2.28,14.3-6.85,3.12-4.57,4.67-10.61,4.67-18.14v-1.45Z"/>
  <path class="cls-1" d="M90.24,100.73l11.28-1.94V45.27l-11.28-1.94v-8.79h24.92V98.79l11.28,1.94v8.72h-36.21v-8.72ZM115.16,15.37h-13.64V1.45h13.64V15.37Z"/>
  <path class="cls-1" d="M188.71,100.52c-2.45,3.42-5.43,6-8.97,7.75-3.53,1.75-7.63,2.63-12.29,2.63-9.14,0-16.28-3.31-21.43-9.93-5.15-6.62-7.72-15.33-7.72-26.13v-1.45c0-12.05,2.57-21.76,7.72-29.15,5.15-7.38,12.33-11.08,21.56-11.08,4.43,0,8.34,.82,11.73,2.46,3.39,1.64,6.29,4,8.69,7.1V12.18l-11.28-1.94V1.45h24.92V98.79l11.28,1.94v8.72h-23.12l-1.11-8.93Zm-36.76-25.68c0,7.52,1.55,13.57,4.64,18.14,3.09,4.57,7.87,6.85,14.33,6.85,4.06,0,7.48-.92,10.25-2.77,2.77-1.85,5.05-4.45,6.85-7.82V54.48c-1.75-3.14-4.04-5.63-6.85-7.48-2.82-1.85-6.19-2.77-10.11-2.77-6.51,0-11.32,2.7-14.43,8.1s-4.67,12.42-4.67,21.05v1.45Z"/>
  <path class="cls-1" d="M224.74,100.73l11.28-1.94V45.27l-11.28-1.94v-8.79h24.92V98.79l11.28,1.94v8.72h-36.21v-8.72ZM249.66,15.37h-13.64V1.45h13.64V15.37Z"/>
  <path class="cls-1" d="M271.44,44.65v-10.11h11.7v-9.48c0-7.98,2.09-14.16,6.26-18.52,4.18-4.36,10-6.54,17.48-6.54,1.57,0,3.15,.13,4.74,.38,1.59,.25,3.36,.61,5.3,1.07l-1.66,10.38c-.83-.18-1.83-.35-3.01-.48-1.18-.14-2.39-.21-3.63-.21-4.02,0-6.99,1.19-8.93,3.56-1.94,2.38-2.91,5.83-2.91,10.35v9.48h15.65v10.11h-15.65v54.14l11.28,1.94v8.72h-36.21v-8.72l11.28-1.94V44.65h-11.7Z"/>
  <path class="cls-1" d="M395.73,43.34l-6.71,1.04-28.52,76.57c-1.89,5.03-4.62,9.42-8.17,13.15-3.55,3.74-8.33,5.61-14.33,5.61-1.06,0-2.45-.13-4.15-.38-1.71-.25-3.02-.5-3.95-.73l1.38-10.73c-.28-.05,.54,0,2.46,.14,1.91,.14,3.13,.21,3.63,.21,2.91,0,5.26-1.26,7.06-3.77s3.37-5.41,4.71-8.69l3.25-7.75-24.71-63.55-6.85-1.11v-8.79h30.25v8.79l-8.45,1.38,12.95,36.97,2.49,9.55h.42l15.58-46.52-8.52-1.38v-8.79h30.18v8.79Z"/>
  <path class="cls-1" d="M416.53,109.45h-13.64v-13.98h13.64v13.98Z"/>
</svg>