<?xml version="1.0" encoding="UTF-8"?>
<svg id="Layer_1" data-name="Layer 1" xmlns="http://www.w3.org/2000/svg" viewBox="0 0 443.82 148.85">
  <defs>
    <style>
      .cls-1 {
        fill: #ffc952;
      }
    </style>
  </defs>
  <path class="cls-1" d="M80.18,79.74c0,11.51-2.77,20.79-8.3,27.85s-13.14,10.58-22.83,10.58c-5.21,0-9.74-1-13.57-2.99-3.84-1.99-7.03-4.93-9.59-8.81l-1.33,10.25H12.02V12.98L0,10.92V1.55H26.55V46.25c2.51-3.54,5.62-6.24,9.33-8.11,3.71-1.87,8.05-2.8,13.02-2.8,9.83,0,17.51,3.93,23.01,11.8,5.51,7.87,8.26,18.22,8.26,31.05v1.55Zm-14.6-1.55c0-9.19-1.67-16.67-5.02-22.42-3.34-5.75-8.46-8.63-15.34-8.63-4.48,0-8.25,1.08-11.32,3.25-3.07,2.16-5.52,5.07-7.34,8.7v35.26c1.82,3.69,4.29,6.61,7.41,8.78,3.12,2.16,6.92,3.25,11.4,3.25,6.83,0,11.91-2.44,15.23-7.3,3.32-4.87,4.98-11.31,4.98-19.33v-1.55Z"/>
  <path class="cls-1" d="M96.15,107.32l12.02-2.07V48.24l-12.02-2.07v-9.37h26.55V105.26l12.02,2.07v9.29h-38.58v-9.29ZM122.7,16.38h-14.53V1.55h14.53v14.83Z"/>
  <path class="cls-1" d="M201.07,107.1c-2.61,3.64-5.79,6.39-9.55,8.26-3.76,1.87-8.13,2.8-13.09,2.8-9.74,0-17.35-3.53-22.83-10.58-5.48-7.06-8.22-16.34-8.22-27.85v-1.55c0-12.83,2.74-23.19,8.22-31.05,5.48-7.87,13.14-11.8,22.98-11.8,4.72,0,8.89,.87,12.5,2.62,3.61,1.75,6.7,4.27,9.26,7.56V12.98l-12.02-2.07V1.55h26.55V105.26l12.02,2.07v9.29h-24.64l-1.18-9.52Zm-39.17-27.37c0,8.02,1.65,14.46,4.94,19.33,3.29,4.87,8.38,7.3,15.27,7.3,4.33,0,7.97-.98,10.92-2.95s5.38-4.74,7.3-8.33V58.05c-1.87-3.34-4.3-6-7.3-7.97-3-1.97-6.59-2.95-10.77-2.95-6.93,0-12.06,2.88-15.38,8.63-3.32,5.75-4.98,13.23-4.98,22.42v1.55Z"/>
  <path class="cls-1" d="M239.46,107.32l12.02-2.07V48.24l-12.02-2.07v-9.37h26.55V105.26l12.02,2.07v9.29h-38.58v-9.29Zm26.55-90.95h-14.53V1.55h14.53v14.83Z"/>
  <path class="cls-1" d="M289.21,47.58v-10.77h12.47v-10.11c0-8.51,2.22-15.08,6.68-19.73,4.45-4.65,10.66-6.97,18.62-6.97,1.67,0,3.36,.14,5.05,.41,1.7,.27,3.58,.65,5.64,1.14l-1.77,11.06c-.88-.2-1.95-.37-3.21-.52s-2.54-.22-3.87-.22c-4.28,0-7.45,1.27-9.52,3.8-2.06,2.53-3.1,6.21-3.1,11.03v10.11h16.67v10.77h-16.67v57.68l12.02,2.07v9.29h-38.58v-9.29l12.02-2.07V47.58h-12.47Z"/>
  <path class="cls-1" d="M421.65,46.17l-7.16,1.11-30.39,81.58c-2.02,5.36-4.92,10.03-8.7,14.02-3.79,3.98-8.88,5.97-15.27,5.97-1.13,0-2.61-.14-4.43-.41-1.82-.27-3.22-.53-4.21-.77l1.48-11.43c-.29-.05,.58,0,2.62,.15,2.04,.15,3.33,.22,3.87,.22,3.1,0,5.61-1.34,7.52-4.02,1.92-2.68,3.59-5.77,5.02-9.26l3.47-8.26-26.33-67.71-7.3-1.18v-9.37h32.23v9.37l-9,1.48,13.79,39.39,2.66,10.18h.44l16.6-49.57-9.07-1.48v-9.37h32.16v9.37Z"/>
  <path class="cls-1" d="M443.82,116.62h-14.53v-14.9h14.53v14.9Z"/>
</svg>