<?xml version="1.0" encoding="UTF-8"?>
<svg id="Layer_1" data-name="Layer 1" xmlns="http://www.w3.org/2000/svg" viewBox="0 0 500 500">
  <defs>
    <style>
      .cls-1 {
        fill: #fff;
      }

      .cls-2 {
        fill: #272727;
      }

      .cls-3 {
        fill: #747474;
      }

      .cls-4 {
        fill: #424242;
      }
    </style>
  </defs>
  <rect class="cls-1" width="500" height="500"/>
  <g>
    <g>
      <path class="cls-2" d="M231.78,431.49c0,3.99-.96,7.2-2.87,9.64-1.92,2.44-4.55,3.67-7.91,3.67-1.81,0-3.37-.34-4.7-1.03-1.33-.69-2.44-1.71-3.32-3.05l-.46,3.55h-4.34v-35.89l-4.16-.72v-3.24h9.2v15.48c.87-1.23,1.95-2.16,3.23-2.81,1.29-.65,2.79-.97,4.51-.97,3.41,0,6.06,1.36,7.97,4.09,1.91,2.73,2.86,6.31,2.86,10.76v.54Zm-5.06-.54c0-3.18-.58-5.77-1.74-7.77-1.16-1.99-2.93-2.99-5.31-2.99-1.55,0-2.86,.38-3.92,1.12-1.06,.75-1.91,1.75-2.54,3.01v12.21c.63,1.28,1.49,2.29,2.57,3.04,1.08,.75,2.4,1.12,3.95,1.12,2.37,0,4.13-.84,5.28-2.53,1.15-1.69,1.72-3.92,1.72-6.69v-.54Z"/>
      <path class="cls-2" d="M237.31,441.04l4.17-.72v-19.75l-4.17-.72v-3.24h9.2v23.71l4.17,.72v3.22h-13.36v-3.22Zm9.2-31.5h-5.03v-5.13h5.03v5.13Z"/>
      <path class="cls-2" d="M273.66,440.97c-.9,1.26-2.01,2.21-3.31,2.86-1.3,.65-2.81,.97-4.54,.97-3.37,0-6.01-1.22-7.91-3.67-1.9-2.44-2.85-5.66-2.85-9.64v-.54c0-4.45,.95-8.03,2.85-10.76,1.9-2.72,4.55-4.09,7.96-4.09,1.63,0,3.08,.3,4.33,.91,1.25,.61,2.32,1.48,3.21,2.62v-11.27l-4.16-.72v-3.24h9.2v35.92l4.16,.72v3.22h-8.53l-.41-3.3Zm-13.57-9.48c0,2.78,.57,5.01,1.71,6.69,1.14,1.69,2.9,2.53,5.29,2.53,1.5,0,2.76-.34,3.78-1.02,1.02-.68,1.87-1.64,2.53-2.89v-12.83c-.65-1.16-1.49-2.08-2.53-2.76-1.04-.68-2.28-1.02-3.73-1.02-2.4,0-4.18,1-5.33,2.99-1.15,1.99-1.72,4.58-1.72,7.77v.54Z"/>
      <path class="cls-2" d="M286.95,441.04l4.17-.72v-19.75l-4.17-.72v-3.24h9.2v23.71l4.17,.72v3.22h-13.36v-3.22Zm9.2-31.5h-5.03v-5.13h5.03v5.13Z"/>
      <path class="cls-2" d="M304.18,420.35v-3.73h4.32v-3.5c0-2.95,.77-5.22,2.31-6.83,1.54-1.61,3.69-2.42,6.45-2.42,.58,0,1.16,.05,1.75,.14,.59,.09,1.24,.23,1.95,.4l-.61,3.83c-.31-.07-.68-.13-1.11-.18-.43-.05-.88-.08-1.34-.08-1.48,0-2.58,.44-3.3,1.32-.72,.88-1.07,2.15-1.07,3.82v3.5h5.77v3.73h-5.77v19.98l4.16,.72v3.22h-13.36v-3.22l4.16-.72v-19.98h-4.32Z"/>
      <path class="cls-2" d="M350.06,419.86l-2.48,.38-10.53,28.26c-.7,1.86-1.7,3.47-3.01,4.85-1.31,1.38-3.07,2.07-5.29,2.07-.39,0-.9-.05-1.53-.14-.63-.09-1.12-.18-1.46-.27l.51-3.96c-.1-.02,.2,0,.91,.05,.71,.05,1.15,.08,1.34,.08,1.07,0,1.94-.46,2.61-1.39,.66-.93,1.24-2,1.74-3.21l1.2-2.86-9.12-23.45-2.53-.41v-3.24h11.16v3.24l-3.12,.51,4.78,13.64,.92,3.53h.15l5.75-17.17-3.14-.51v-3.24h11.14v3.24Z"/>
      <path class="cls-2" d="M357.73,444.26h-5.03v-5.16h5.03v5.16Z"/>
    </g>
    <g>
      <path class="cls-2" d="M190.15,446.78l-43.63-.25c-4.66,0-8.51-3.64-8.51-8.3v-27.38c0-4.66,3.78-8.44,8.44-8.44h43.7c4.66,0,8.44,3.78,8.44,8.44v27.5c0,4.66-3.78,8.44-8.44,8.44Z"/>
      <path class="cls-3" d="M172.29,420.65c-4.98,1.14-23.06,10.03-34.27,15.65v2.04c0,4.66,3.9,8.46,8.56,8.46h27.2c.79-8.72-1.11-23.49-1.48-26.16Z"/>
      <path class="cls-4" d="M190.15,402.41h-9.35c-.2,.55-.68,1.03-.98,1.33-1.93,.45-3.11,1.36-3.87,2.46,.76,1.7,1.61,3.4,2.45,5.1-1.52,.54-3.05,1.09-4.57,1.64-.05,.09-.1,.17-.15,.25-.09,.1-.19,.19-.28,.29,.62,.96,.77,2.04-.19,3.49-1.4,2.33-4.17,2.82-6.96,2.83-8.24,6-18.31,9.81-28.24,12.34v3.91c11.22-5.62,21.76-11.38,33.92-15.12,1.75,8.43,2.51,17.14,1.72,25.86h16.5c4.66,0,8.44-3.78,8.44-8.44v-27.5c0-4.66-3.78-8.44-8.44-8.44Z"/>
      <polygon class="cls-1" points="171.83 415.84 137.89 431.25 137.92 436.34 173.77 420.07 171.83 415.84"/>
      <rect class="cls-1" x="172.14" y="409.91" width="14.78" height="9.86" transform="translate(482.36 79.25) rotate(65.46)"/>
      <rect class="cls-1" x="176.03" y="421.38" width="14.78" height="3.94" rx=".49" ry=".49" transform="translate(-159.24 114.39) rotate(-24.54)"/>
      <path class="cls-1" d="M169.53,410.74l-1.23-2.7c-.11-.24,0-.53,.24-.65l11.65-5.03c.24-.11,1.41-.07,1.77,0l1.02,2.24c.11,.24,0,.53-.24,.65l-12.56,5.73c-.24,.11-.53,0-.65-.24Z"/>
      <rect class="cls-1" x="174.57" y="407.44" width="9.86" height="14.78" rx="1.06" ry="1.06" transform="translate(482.33 79.29) rotate(65.46)"/>
      <rect class="cls-1" x="168" y="434.61" width="14.84" height="8.67" rx="3.11" ry="3.11" transform="translate(-220 697.97) rotate(-101.44)"/>
      <path class="cls-1" d="M170.41,429.39h5.12c1.54,0,2.8,1.25,2.8,2.8v3.08c0,1.54-1.25,2.8-2.8,2.8h-5.12v-8.67h0Z" transform="translate(-216.15 690.67) rotate(-101.44)"/>
      <path class="cls-1" d="M174.84,435.55l-.15-.04c-.56-.18-2.26-9.51-2.27-9.6-.19-1.05-.46-2.62-.67-4.12-.35-2.39,.19-4.96,.84-5.14,.15-.04,.36,0,.47,.28,.18,.41,.22,1.35,.25,2.43,.02,.7-.01,1.18-.04,1.58-.01,.16-.02,.31-.02,.44-.03,1.35,.01,2.58,.05,3.5v.11c.06,1.24,.09,1.99,1.38,8.44q.38,1.91,.27,2.03l-.11,.11Zm-2.2-18.3c-.29,.53-.71,2.39-.41,4.45,.19,1.3,.41,2.64,.59,3.65,0-.12-.01-.24-.02-.36v-.11c-.05-.93-.09-2.17-.06-3.53,0-.14,.01-.29,.02-.46,.02-.38,.06-.85,.04-1.53-.02-.68-.05-1.66-.17-2.12Z"/>
    </g>
  </g>
  <g>
    <path d="M111.24,121.06h-2.88l-19.62-29.2v29.2h-2.91v-34.12h2.91l19.64,29.23v-29.23h2.86v34.12Z"/>
    <path d="M117.71,108.01c0-2.44,.47-4.63,1.42-6.59s2.28-3.47,4.01-4.56,3.68-1.63,5.87-1.63c3.38,0,6.11,1.18,8.2,3.55s3.14,5.5,3.14,9.41v.59c0,2.45-.47,4.66-1.42,6.62s-2.28,3.47-4,4.54-3.68,1.59-5.88,1.59c-3.36,0-6.09-1.18-8.19-3.55s-3.15-5.5-3.15-9.41v-.56Zm2.81,.77c0,3.03,.79,5.52,2.36,7.46s3.63,2.92,6.18,2.92,4.58-.97,6.15-2.92,2.36-4.51,2.36-7.7v-.54c0-1.94-.36-3.71-1.08-5.32s-1.73-2.86-3.02-3.74-2.78-1.32-4.45-1.32c-2.5,0-4.54,.98-6.12,2.94s-2.37,4.53-2.37,7.7v.52Z"/>
    <path d="M160.36,95.7l.09,4.12c.94-1.53,2.11-2.68,3.52-3.45s2.97-1.15,4.69-1.15c4,0,6.54,1.64,7.62,4.92,.91-1.58,2.12-2.79,3.63-3.64s3.19-1.28,5.02-1.28c5.44,0,8.21,2.97,8.32,8.91v16.92h-2.81v-16.71c-.02-2.27-.5-3.95-1.46-5.04s-2.53-1.64-4.7-1.64c-2.02,.03-3.72,.68-5.11,1.96s-2.16,2.82-2.32,4.65v16.78h-2.81v-16.92c-.02-2.17-.53-3.79-1.54-4.86s-2.56-1.61-4.65-1.61c-1.77,0-3.28,.5-4.55,1.51s-2.2,2.5-2.81,4.49v17.39h-2.81v-25.36h2.7Z"/>
    <path d="M210.17,121.53c-2.16,0-4.11-.53-5.85-1.59s-3.1-2.54-4.07-4.44-1.45-4.03-1.45-6.39v-1.01c0-2.44,.47-4.63,1.42-6.59s2.26-3.49,3.95-4.61,3.52-1.68,5.48-1.68c3.08,0,5.52,1.05,7.32,3.15s2.71,4.97,2.71,8.61v1.57h-18.09v.54c0,2.88,.82,5.27,2.47,7.18s3.72,2.87,6.22,2.87c1.5,0,2.82-.27,3.97-.82s2.19-1.42,3.13-2.62l1.76,1.34c-2.06,2.98-5.05,4.48-8.98,4.48Zm-.52-23.91c-2.11,0-3.89,.77-5.33,2.32s-2.32,3.62-2.64,6.23h15.21v-.3c-.08-2.44-.77-4.42-2.09-5.95s-3.03-2.3-5.16-2.3Z"/>
    <path d="M224.02,108.15c0-3.94,.88-7.07,2.64-9.41s4.14-3.5,7.16-3.5c3.42,0,6.03,1.35,7.83,4.05v-14.23h2.79v36h-2.62l-.12-3.38c-1.8,2.56-4.44,3.84-7.92,3.84-2.92,0-5.28-1.18-7.07-3.53s-2.68-5.53-2.68-9.53v-.33Zm2.84,.49c0,3.23,.65,5.79,1.95,7.65s3.12,2.8,5.48,2.8c3.45,0,5.91-1.52,7.36-4.57v-11.91c-1.45-3.3-3.89-4.95-7.31-4.95-2.36,0-4.2,.93-5.51,2.78s-1.97,4.58-1.97,8.19Z"/>
    <path d="M251.65,88.38c0-.53,.17-.97,.52-1.34,.34-.36,.81-.55,1.41-.55s1.07,.18,1.42,.55c.35,.37,.53,.81,.53,1.34s-.18,.97-.53,1.33c-.35,.36-.82,.54-1.42,.54s-1.06-.18-1.41-.54c-.34-.36-.52-.8-.52-1.33Zm3.3,32.68h-2.81v-25.36h2.81v25.36Z"/>
    <path d="M278.58,121.06c-.28-.8-.46-1.98-.54-3.54-.98,1.28-2.24,2.27-3.76,2.96s-3.14,1.04-4.84,1.04c-2.44,0-4.41-.68-5.92-2.04s-2.26-3.08-2.26-5.16c0-2.47,1.03-4.42,3.08-5.86s4.92-2.16,8.59-2.16h5.09v-2.88c0-1.81-.56-3.24-1.68-4.28s-2.75-1.56-4.89-1.56c-1.95,0-3.57,.5-4.85,1.5s-1.92,2.2-1.92,3.61l-2.81-.02c0-2.02,.94-3.76,2.81-5.24s4.18-2.21,6.91-2.21,5.06,.71,6.69,2.12,2.47,3.39,2.52,5.92v12c0,2.45,.26,4.29,.77,5.51v.28h-3Zm-8.81-2.02c1.88,0,3.55-.45,5.03-1.36s2.55-2.12,3.22-3.63v-5.58h-5.02c-2.8,.03-4.98,.54-6.56,1.54s-2.37,2.36-2.37,4.09c0,1.42,.53,2.6,1.58,3.54s2.43,1.41,4.11,1.41Z"/>
    <path d="M301.97,121.06v-23.06h-4.2v-2.3h4.2v-3.07c0-2.59,.66-4.59,1.98-5.98s3.16-2.09,5.52-2.09c1.06,0,2.05,.13,2.98,.39l-.21,2.32c-.78-.19-1.63-.28-2.55-.28-1.55,0-2.75,.48-3.61,1.45-.86,.96-1.29,2.33-1.29,4.1v3.15h6.05v2.3h-6.05v23.06h-2.81Z"/>
    <path d="M314.3,108.01c0-2.44,.47-4.63,1.42-6.59s2.28-3.47,4.01-4.56,3.68-1.63,5.87-1.63c3.38,0,6.11,1.18,8.2,3.55s3.14,5.5,3.14,9.41v.59c0,2.45-.47,4.66-1.42,6.62s-2.28,3.47-4,4.54-3.68,1.59-5.88,1.59c-3.36,0-6.09-1.18-8.19-3.55s-3.15-5.5-3.15-9.41v-.56Zm2.81,.77c0,3.03,.79,5.52,2.36,7.46s3.63,2.92,6.18,2.92,4.58-.97,6.15-2.92,2.36-4.51,2.36-7.7v-.54c0-1.94-.36-3.71-1.08-5.32s-1.73-2.86-3.02-3.74-2.78-1.32-4.45-1.32c-2.5,0-4.54,.98-6.12,2.94s-2.37,4.53-2.37,7.7v.52Z"/>
    <path d="M359.04,117.85c-1.69,2.45-4.38,3.68-8.09,3.68-2.7,0-4.76-.79-6.16-2.36s-2.12-3.89-2.16-6.97v-16.5h2.79v16.15c0,4.83,1.95,7.24,5.86,7.24s6.63-1.68,7.71-5.04v-18.35h2.81v25.36h-2.72l-.05-3.21Z"/>
    <path d="M371.77,95.7l.09,4.34c.95-1.56,2.14-2.75,3.56-3.57s2.99-1.23,4.71-1.23c2.72,0,4.74,.77,6.07,2.3s2,3.83,2.02,6.89v16.64h-2.79v-16.66c-.02-2.27-.5-3.95-1.44-5.06s-2.46-1.66-4.54-1.66c-1.73,0-3.27,.54-4.61,1.63s-2.32,2.55-2.96,4.39v17.37h-2.79v-25.36h2.67Z"/>
    <path d="M394.34,108.15c0-3.94,.88-7.07,2.64-9.41s4.14-3.5,7.16-3.5c3.42,0,6.03,1.35,7.83,4.05v-14.23h2.79v36h-2.62l-.12-3.38c-1.8,2.56-4.44,3.84-7.92,3.84-2.92,0-5.28-1.18-7.07-3.53s-2.68-5.53-2.68-9.53v-.33Zm2.84,.49c0,3.23,.65,5.79,1.95,7.65s3.12,2.8,5.48,2.8c3.45,0,5.91-1.52,7.36-4.57v-11.91c-1.45-3.3-3.89-4.95-7.31-4.95-2.36,0-4.2,.93-5.51,2.78s-1.97,4.58-1.97,8.19Z"/>
  </g>
</svg>